<?xml version="1.0" encoding="UTF-8"?>
<svg xmlns="http://www.w3.org/2000/svg" xmlns:xlink="http://www.w3.org/1999/xlink" width="64pt" height="64pt" viewBox="0 0 64 64" version="1.1">
<g id="surface1">
<path style=" stroke:none;fill-rule:nonzero;fill:rgb(25.882353%,52.156863%,95.686275%);fill-opacity:1;" d="M 60.074219 32.613281 C 60.402344 32.273438 60.402344 31.726562 60.074219 31.386719 L 54.113281 25.222656 C 53.921875 25.027344 53.835938 24.753906 53.871094 24.484375 L 55.074219 15.996094 C 55.140625 15.523438 54.820312 15.082031 54.351562 15 L 45.902344 13.519531 C 45.632812 13.472656 45.402344 13.304688 45.273438 13.0625 L 41.257812 5.492188 C 41.039062 5.070312 40.519531 4.898438 40.089844 5.105469 L 32.382812 8.875 C 32.140625 8.996094 31.851562 8.996094 31.609375 8.875 L 23.910156 5.109375 C 23.480469 4.902344 22.960938 5.074219 22.742188 5.496094 L 18.722656 13.070312 C 18.59375 13.308594 18.363281 13.480469 18.09375 13.527344 L 9.644531 15.007812 C 9.175781 15.089844 8.855469 15.527344 8.925781 16 L 10.125 24.492188 C 10.164062 24.761719 10.074219 25.03125 9.886719 25.230469 L 3.925781 31.386719 C 3.597656 31.726562 3.597656 32.273438 3.925781 32.613281 L 9.886719 38.777344 C 10.078125 38.972656 10.164062 39.246094 10.128906 39.515625 L 8.929688 48 C 8.863281 48.472656 9.179688 48.910156 9.648438 48.996094 L 18.097656 50.476562 C 18.367188 50.523438 18.597656 50.691406 18.726562 50.933594 L 22.746094 58.507812 C 22.964844 58.929688 23.484375 59.097656 23.914062 58.890625 L 31.617188 55.125 C 31.859375 55.003906 32.148438 55.003906 32.390625 55.125 L 40.09375 58.886719 C 40.523438 59.097656 41.039062 58.925781 41.261719 58.503906 L 45.28125 50.929688 C 45.40625 50.6875 45.640625 50.519531 45.910156 50.472656 L 54.355469 48.992188 C 54.824219 48.910156 55.144531 48.46875 55.078125 47.996094 L 53.878906 39.507812 C 53.839844 39.238281 53.925781 38.964844 54.117188 38.769531 Z M 28.695312 44.191406 L 17.253906 32.46875 L 21.835938 28 L 28.820312 35.15625 L 43.15625 21.261719 L 47.617188 25.855469 Z M 28.695312 44.191406 "/>
</g>
</svg>
